# xmcd CD database file
#
# Track frame offsets:
#	150
#	10537
#	23887
#	39750
#	58087
#	76800
#	89550
#	104400
#	114600
#	127500
#	145837
#	168375
#
# Disc length: 2527 seconds
#
# Revision: 0
# Processed by: cddbd v1.4PL0 Copyright (c) Steve Scherf et al.
# Submitted via: CDex 1.51
#
DISCID=8909dd0c
DTITLE=Greg Piccolo - Homage
DYEAR=2001
DGENRE=Jazz
TTITLE0=Illinois Blows the Blues
TTITLE1=Soft
TTITLE2=Night and Day
TTITLE3=You Left Me All Alone
TTITLE4=You're Not the Kind
TTITLE5=Red's Blues
TTITLE6=Lester Smooths It Out
TTITLE7=Blow Joe Blow
TTITLE8=Handclappin'
TTITLE9=Ram-Bunk-Shus
TTITLE10=Port of Rico
TTITLE11=Over the Rainbow
EXTD=YEAR: 2001
EXTT0=
EXTT1=
EXTT2=
EXTT3=
EXTT4=
EXTT5=
EXTT6=
EXTT7=
EXTT8=
EXTT9=
EXTT10=
EXTT11=
PLAYORDER=
